<svg xmlns="http://www.w3.org/2000/svg" id="Layer_1" width="256" height="256" viewBox="0 0 256 256"><path d="M117.8 113c-13.4 3.9-29.4 6-48 6.1a55.3 55.3 0 0 1 28.5-35.9 249.5 249.5 0 0 1 19.5 29.8zm9.2 18.3c-1.2-2.7-2.4-5.3-3.7-7.9-15.4 4.8-33.8 7.2-55 7.3v1.4a54.6 54.6 0 0 0 12.7 35c11.9-18 27.3-30 46-35.8zm-37.6 44a54.4 54.4 0 0 0 53.3 7.9 219.6 219.6 0 0 0-11.3-41.3c-17.3 5.2-31.2 16.3-42 33.4zm67-86.6a54.4 54.4 0 0 0-46.8-9.7 278.3 278.3 0 0 1 19.3 30.1c11.7-5 20.8-11.8 27.5-20.4zm80.3 43.4A113.7 113.7 0 1 1 123 18.3a113.7 113.7 0 0 1 113.7 113.8zm-47.3 0a66.4 66.4 0 1 0-66.4 66.3 66.4 66.4 0 0 0 66.4-66.3zm-55.2-12.8l4.2 9.3c11.9-2.1 25-2 39.3.4a54.4 54.4 0 0 0-12.9-32.3c-7.6 9.6-17.9 17.1-30.6 22.6zm8.6 20.2a229 229 0 0 1 10.6 38.1 54.5 54.5 0 0 0 23.7-37c-12.5-2.2-23.9-2.6-34.3-1.1z"/></svg>