<svg xmlns="http://www.w3.org/2000/svg" id="Layer_1" width="256" height="256" viewBox="0 0 256 256"><path d="M156.5 71.6c-7.5-.3-9.7-.4-28.7-.4s-21.1.1-28.6.4c-19.2.9-28.2 10-29.1 29.1-.3 7.5-.4 9.7-.4 28.6s.1 21.2.4 28.7c.9 19 9.8 28.2 29.1 29 7.5.4 9.7.5 28.6.5s21.2-.1 28.7-.5c19.2-.8 28.2-10 29.1-29 .3-7.5.4-9.7.4-28.7s-.1-21.1-.4-28.6c-.9-19.1-9.9-28.2-29.1-29.1zm-28.7 94.1a36.4 36.4 0 1 1 36.4-36.4 36.4 36.4 0 0 1-36.4 36.4zm37.9-65.7a8.5 8.5 0 1 1 8.5-8.5 8.5 8.5 0 0 1-8.5 8.5zm-14.2 29.3a23.7 23.7 0 1 1-23.7-23.6 23.7 23.7 0 0 1 23.7 23.6zM127.8 7.8a121.6 121.6 0 1 0 121.6 121.5A121.5 121.5 0 0 0 127.8 7.8zm70.5 150.8c-1.2 25.7-15.5 40-41.2 41.2-7.6.3-10 .4-29.3.4s-21.6-.1-29.2-.4c-25.8-1.2-40-15.5-41.2-41.2-.4-7.6-.5-10-.5-29.3s.1-21.6.5-29.2C58.6 74.3 72.9 60 98.6 58.9c7.6-.4 10-.5 29.2-.5s21.7.1 29.3.5c25.8 1.1 40.1 15.5 41.2 41.2.4 7.6.4 10 .4 29.2s0 21.7-.4 29.3z"/></svg>