<?xml version="1.0" encoding="utf-8"?>
<!-- Generator: Adobe Illustrator 24.0.1, SVG Export Plug-In . SVG Version: 6.00 Build 0)  -->
<svg version="1.1" id="Layer_1" xmlns="http://www.w3.org/2000/svg" xmlns:xlink="http://www.w3.org/1999/xlink" x="0px" y="0px"
	 viewBox="0 0 24 24" style="enable-background:new 0 0 24 24;" xml:space="preserve">
<style type="text/css">
	.st0{fill:none;stroke:#000000;stroke-width:2.4655;stroke-miterlimit:10;}
	.st1{fill:none;stroke:#000000;stroke-width:2.8988;stroke-miterlimit:10;}
	.st2{fill:none;stroke:#000000;stroke-width:2.6541;stroke-miterlimit:10;}
	.st3{fill:none;stroke:#000000;stroke-width:2.8675;stroke-miterlimit:10;}
	.st4{fill:none;stroke:#000000;stroke-width:2.0646;stroke-miterlimit:10;}
	.st5{fill:none;stroke:#000000;stroke-width:2.6095;stroke-miterlimit:10;}
</style>
<path d="M-72.2-27.3c-0.7,0-1,0-2.8,0s-2.1,0-2.8,0c-1.9,0.1-2.8,1-2.9,2.9c0,0.7,0,1,0,2.8c0,1.9,0,2.1,0,2.8
	c0.1,1.9,1,2.8,2.9,2.9c0.7,0,1,0,2.8,0c1.9,0,2.1,0,2.8,0c1.9-0.1,2.8-1,2.9-2.9c0-0.7,0-1,0-2.8s0-2.1,0-2.8
	C-69.4-26.3-70.3-27.2-72.2-27.3z M-75-18c-2,0-3.6-1.6-3.6-3.6c0-2,1.6-3.6,3.6-3.6s3.6,1.6,3.6,3.6S-73-18-75-18z M-71.2-24.5
	c-0.5,0-0.8-0.4-0.8-0.8c0-0.5,0.4-0.8,0.8-0.8c0.5,0,0.8,0.4,0.8,0.8C-70.4-24.9-70.8-24.5-71.2-24.5z M-72.6-21.6
	c0,1.3-1,2.3-2.3,2.3s-2.3-1-2.3-2.3c0-1.3,1-2.3,2.3-2.3S-72.6-22.9-72.6-21.6z M-75-33.6c-6.6,0-12,5.4-12,12s5.4,12,12,12
	s12-5.4,12-12S-68.4-33.6-75-33.6z M-68-18.7c-0.1,2.5-1.5,4-4.1,4.1c-0.7,0-1,0-2.9,0s-2.1,0-2.9,0c-2.5-0.1-4-1.5-4.1-4.1
	c0-0.7,0-1,0-2.9c0-1.9,0-2.1,0-2.9c0.1-2.5,1.5-4,4.1-4.1c0.7,0,1,0,2.9,0s2.1,0,2.9,0c2.5,0.1,4,1.5,4.1,4.1c0,0.7,0,1,0,2.9
	C-68-19.7-68-19.5-68-18.7z"/>
<path d="M-46.1-23.6c-1.4,0.4-3.1,0.6-5.1,0.6c0.4-1.7,1.5-3,3-3.8C-47.4-25.7-46.7-24.7-46.1-23.6z M-45.1-21.7
	c-0.1-0.3-0.3-0.6-0.4-0.8c-1.6,0.5-3.6,0.8-5.8,0.8l0,0.1c0,1.4,0.5,2.7,1.3,3.7C-48.7-19.8-47.1-21-45.1-21.7z M-49.1-17
	c1.6,1.2,3.7,1.6,5.6,0.8c-0.3-1.5-0.7-2.9-1.2-4.4C-46.5-20-48-18.8-49.1-17z M-42-26.1c-1-0.8-2.2-1.2-3.5-1.2
	c-0.5,0-1,0.1-1.4,0.2c0.8,1,1.4,2.1,2,3.2C-43.7-24.5-42.7-25.2-42-26.1z M-33.6-21.6c0,6.6-5.4,12-12,12s-12-5.4-12-12
	s5.4-12,12-12S-33.6-28.2-33.6-21.6z M-38.6-21.6c0-3.9-3.1-7-7-7s-7,3.1-7,7s3.1,7,7,7S-38.6-17.7-38.6-21.6z M-44.4-22.9
	c0.2,0.3,0.3,0.7,0.4,1c1.3-0.2,2.6-0.2,4.1,0c-0.1-1.3-0.6-2.5-1.4-3.4C-41.9-24.3-43-23.5-44.4-22.9z M-43.5-20.8
	c0.5,1.3,0.9,2.7,1.1,4c1.3-0.9,2.2-2.3,2.5-3.9C-41.2-20.9-42.4-20.9-43.5-20.8z"/>
<path d="M-17.6-33.8c-6.6,0-12,5.4-12,12s5.4,12,12,12s12-5.4,12-12S-10.9-33.8-17.6-33.8z M-14.6-25.8h-1.4c-0.5,0-0.6,0.2-0.6,0.8
	v1.2h2l-0.2,2h-1.8v7h-3v-7h-2v-2h2v-2.3c0-1.8,0.9-2.7,3-2.7h2V-25.8z"/>
<path d="M-78.2,42.2h-2v-1.9h1.8C-76.5,40.3-76.7,42.2-78.2,42.2z M-72.4,43.2h2.6C-69.9,41.5-72.1,41.4-72.4,43.2z M-78.3,43.6
	h-1.9v1.9h1.8C-76.5,45.6-76.6,43.6-78.3,43.6z M-63,43.3c0,6.6-5.4,12-12,12s-12-5.4-12-12s5.4-12,12-12S-63,36.7-63,43.3z
	 M-76.4,42.6c1.7-0.9,1.6-4-1.6-4H-82v8.7h3.8C-74.3,47.3-74.3,43.3-76.4,42.6z M-73,39.4h4v-0.9h-4V39.4z M-68.1,43.1
	c-0.5-3.5-6.1-3.7-6.1,0.9c0,4.5,5.2,3.8,5.9,1.6H-70c-0.6,0.7-2.5,0.5-2.4-1.2h4.4C-68,43.8-68,43.4-68.1,43.1z"/>
<path d="M-50.3,42.2h-2v-1.9h1.8C-48.6,40.3-48.9,42.2-50.3,42.2z M-44.5,43.2h2.6C-42,41.5-44.3,41.4-44.5,43.2z M-50.4,43.6h-1.9
	v1.9h1.8C-48.7,45.6-48.8,43.6-50.4,43.6z M-35.2,43.3c0,6.6-5.4,12-12,12s-12-5.4-12-12s5.4-12,12-12S-35.2,36.7-35.2,43.3z
	 M-48.5,42.6c1.7-0.9,1.6-4-1.6-4h-4.1v8.7h3.8C-46.4,47.3-46.5,43.3-48.5,42.6z M-45.2,39.4h4v-0.9h-4V39.4z M-40.2,43.1
	c-0.5-3.5-6.1-3.7-6.1,0.9c0,4.5,5.2,3.8,5.9,1.6h-1.8c-0.6,0.7-2.5,0.5-2.4-1.2h4.4C-40.2,43.8-40.2,43.4-40.2,43.1z"/>
<path d="M-20.3,42.2h-2v-1.9h1.8C-18.6,40.3-18.8,42.2-20.3,42.2z M-14.5,43.2h2.6C-12,41.5-14.2,41.4-14.5,43.2z M-20.4,43.6h-1.9
	v1.9h1.8C-18.6,45.6-18.7,43.6-20.4,43.6z M-5.1,43.3c0,6.6-5.4,12-12,12s-12-5.4-12-12s5.4-12,12-12S-5.1,36.7-5.1,43.3z
	 M-18.5,42.6c1.7-0.9,1.6-4-1.6-4h-4.1v8.7h3.8C-16.4,47.3-16.4,43.3-18.5,42.6z M-15.1,39.4h4v-0.9h-4V39.4z M-10.2,43.1
	c-0.5-3.5-6.1-3.7-6.1,0.9c0,4.5,5.2,3.8,5.9,1.6h-1.8c-0.6,0.7-2.5,0.5-2.4-1.2h4.4C-10.1,43.8-10.1,43.4-10.2,43.1z"/>
<path d="M8.9,42.2h-2v-1.9h1.8C10.5,40.3,10.3,42.2,8.9,42.2z M14.6,43.2h2.6C17.2,41.5,14.9,41.4,14.6,43.2z M8.7,43.6H6.9v1.9h1.8
	C10.5,45.6,10.4,43.6,8.7,43.6z M24,43.3c0,6.6-5.4,12-12,12S0,50,0,43.3s5.4-12,12-12S24,36.7,24,43.3z M10.7,42.6
	c1.7-0.9,1.6-4-1.6-4H5v8.7h3.8C12.7,47.3,12.7,43.3,10.7,42.6z M14,39.4h4v-0.9h-4V39.4z M19,43.1c-0.5-3.5-6.1-3.7-6.1,0.9
	c0,4.5,5.2,3.8,5.9,1.6H17c-0.6,0.7-2.5,0.5-2.4-1.2H19C19,43.8,19,43.4,19,43.1z"/>
<path d="M8.9-22.8h-2v-1.9h1.8C10.5-24.6,10.3-22.8,8.9-22.8z M14.6-21.7h2.6C17.2-23.4,14.9-23.5,14.6-21.7z M8.7-21.3H6.9v1.9h1.8
	C10.5-19.4,10.4-21.3,8.7-21.3z M24-21.6c0,6.6-5.4,12-12,12S0-15,0-21.6s5.4-12,12-12S24-28.2,24-21.6z M10.7-22.3
	c1.7-0.9,1.6-4-1.6-4H5v8.7h3.8C12.7-17.6,12.7-21.6,10.7-22.3z M14-25.5h4v-0.9h-4V-25.5z M19-21.8c-0.5-3.5-6.1-3.7-6.1,0.9
	c0,4.5,5.2,3.8,5.9,1.6H17c-0.6,0.7-2.5,0.5-2.4-1.2H19C19-21.1,19-21.5,19-21.8z"/>
<rect x="-86.3" y="16.6" transform="matrix(0.7071 -0.7071 0.7071 0.7071 -36.7003 -52.4109)" width="9.4" height="2.9"/>
<circle class="st0" cx="-72.2" cy="8.3" r="7"/>
<line class="st1" x1="-51.9" y1="6.7" x2="-42.5" y2="16.1"/>
<line class="st1" x1="-42.5" y1="6.7" x2="-51.9" y2="16.1"/>
<circle class="st1" cx="-47.2" cy="11.6" r="9.2"/>
<line class="st2" x1="-22.2" y1="12.6" x2="-19.5" y2="15.3"/>
<line class="st2" x1="-11.5" y1="7.9" x2="-20.1" y2="16.5"/>
<circle class="st3" cx="-17.3" cy="11.8" r="9.1"/>
<line class="st4" x1="16.1" y1="13.2" x2="6.6" y2="13.2"/>
<circle class="st5" cx="11.5" cy="12.9" r="8.3"/>
</svg>
